<svg width="285.47863159179684px" height="103.39393005371093px" xmlns="http://www.w3.org/2000/svg" viewBox="107.26068420410158 23.303034973144534 285.47863159179684 103.39393005371093" style="background: rgba(0, 0, 0, 0);" preserveAspectRatio="xMidYMid"><defs><filter id="editing-metal-beveled"><feGaussianBlur stdDeviation="4" in="SourceAlpha" result="blur"></feGaussianBlur><feSpecularLighting surfaceScale="5" specularConstant="0.8" specularExponent="7.5" lighting-color="#fff" in="blur" result="specular"><fePointLight x="-250" y="-50" z="300"></fePointLight></feSpecularLighting><feComposite operator="in" in="specular" in2="SourceAlpha" result="comp"></feComposite><feComposite in="SourceGraphic" in2="comp" operator="arithmetic" k1="0" k2="1" k3="1" k4="0"></feComposite></filter></defs><g filter="url(#editing-metal-beveled)"><g transform="translate(128.33455753326416, 99.03000068664551)"><path d="M-0.96 2.37L-0.96 2.37L-0.96 2.37Q-0.96-0.70 8.26-14.14L8.26-14.14L8.26-14.14Q7.94-15.30 7.94-16.26L7.94-16.26L7.94-16.26Q7.94-17.22 9.54-18.50L9.54-18.50L9.54-18.50Q11.14-19.78 11.97-19.78L11.97-19.78L11.97-19.78Q12.10-19.78 12.16-19.78L12.16-19.78L12.16-19.78Q15.94-24.96 18.88-28.54L18.88-28.54L18.88-28.54Q21.82-32.13 22.34-32.13L22.34-32.13L22.34-32.13Q22.85-32.13 23.14-31.71L23.14-31.71L23.14-31.71Q23.42-31.30 23.42-30.85L23.42-30.85L23.42-30.85Q18.30-24.51 12.93-17.15L12.93-17.15L13.06-16.70L15.36-16.90L15.36-16.90Q20.22-17.22 25.92-19.10L25.92-19.10L25.92-19.10Q31.62-20.99 35.26-23.42L35.26-23.42L35.26-23.42Q42.82-28.54 42.82-32.83L42.82-32.83L42.82-32.83Q42.82-34.69 40.32-35.97L40.32-35.97L40.32-35.97Q37.82-37.25 32.51-37.25L32.51-37.25L32.51-37.25Q27.20-37.25 18.08-34.66L18.08-34.66L18.08-34.66Q8.96-32.06 5.38-28.99L5.38-28.99L5.38-28.99Q4.35-28.10 4.64-27.58L4.64-27.58L4.64-27.58Q4.93-27.07 4.74-27.01L4.74-27.01L4.74-27.01Q4.54-26.94 4.16-27.20L4.16-27.20L4.16-27.20Q2.82-27.97 2.46-29.12L2.46-29.12L2.46-29.12Q2.11-30.27 2.11-30.85L2.11-30.85L2.11-30.85Q2.11-31.42 2.43-31.68L2.43-31.68L2.43-31.68Q4.54-34.75 11.87-37.47L11.87-37.47L11.87-37.47Q19.20-40.19 25.41-41.06L25.41-41.06L25.41-41.06Q31.62-41.92 34.59-41.92L34.59-41.92L34.59-41.92Q37.57-41.92 39.52-41.54L39.52-41.54L39.52-41.54Q41.47-41.15 43.01-39.81L43.01-39.81L43.01-39.81Q45.38-37.82 45.38-34.24L45.38-34.24L45.38-34.24Q45.38-30.72 42.75-27.71L42.75-27.71L42.75-27.71Q40.13-24.70 36-22.30L36-22.30L36-22.30Q31.87-19.90 25.98-17.98L25.98-17.98L25.98-17.98Q19.14-15.74 13.38-15.74L13.38-15.74L13.38-15.74Q15.42-10.62 21.60-5.41L21.60-5.41L21.60-5.41Q27.78-0.19 31.81-0.19L31.81-0.19L31.81-0.19Q33.41-0.19 34.62-0.96L34.62-0.96L34.62-0.96Q35.84-1.73 36.03-2.88L36.03-2.88L36.03-2.88Q36.03-3.20 36.35-3.07L36.35-3.07L36.35-3.07Q36.48-2.88 36.48-2.75L36.48-2.75L36.48-2.75Q35.97 1.54 29.18 1.54L29.18 1.54L29.18 1.54Q25.28 1.54 21.06-0.51L21.06-0.51L21.06-0.51Q16.83-2.56 13.86-5.63L13.86-5.63L13.86-5.63Q10.88-8.70 9.15-11.97L9.15-11.97L9.15-11.97Q2.37-2.11 0.77 1.92L0.77 1.92L0.77 1.92Q0.38 2.94-0.29 2.94L-0.29 2.94L-0.29 2.94Q-0.96 2.94-0.96 2.37ZM51.90-9.86L51.90-9.86L51.90-9.86Q51.26-8.90 50.18-7.42L50.18-7.42L50.18-7.42Q49.09-5.95 48.13-4.61L48.13-4.61L48.13-4.61Q47.17-3.26 47.17-2.59L47.17-2.59L47.17-2.59Q47.17-1.92 47.81-1.92L47.81-1.92L47.81-1.92Q48.96-1.92 51.20-3.97L51.20-3.97L53.25-5.95L53.25-5.95Q56.38-9.34 58.75-12.48L58.75-12.48L61.12-15.36L61.12-15.36Q62.21-16.58 63.42-16.64L63.42-16.64L63.42-16.64Q65.28-16.64 66.88-15.23L66.88-15.23L66.88-15.23Q66.50-14.66 65.63-13.57L65.63-13.57L65.63-13.57Q64.77-12.48 63.90-11.36L63.90-11.36L63.90-11.36Q63.04-10.24 61.92-8.77L61.92-8.77L61.92-8.77Q60.80-7.30 59.97-6.02L59.97-6.02L59.97-6.02Q59.14-4.74 58.27-3.30L58.27-3.30L58.27-3.30Q57.41-1.86 57.02-0.83L57.02-0.83L57.02-0.83Q56.06 1.98 57.09 2.69L57.09 2.69L57.09 2.69Q57.41 3.01 56.96 3.01L56.96 3.01L56.96 3.01Q56.83 3.01 56.70 2.94L56.70 2.94L56.70 2.94Q54.27 2.11 54.27-1.02L54.27-1.02L54.27-1.02Q54.27-4.16 56.32-8.45L56.32-8.45L56.32-8.45Q49.47 0.38 45.18 0.38L45.18 0.38L45.18 0.38Q41.92 0.38 41.92-2.69L41.92-2.69L41.92-2.69Q41.92-3.78 42.37-5.25L42.37-5.25L42.37-5.25Q43.33-8.13 48.90-14.34L48.90-14.34L48.90-14.34Q49.60-15.17 49.60-15.74L49.60-15.74L49.60-15.74Q49.60-16.32 48.83-16.32L48.83-16.32L48.83-16.32Q48.06-16.32 46.53-15.17L46.53-15.17L46.53-15.17Q44.99-14.02 42.24-11.42L42.24-11.42L42.24-11.42Q39.49-8.83 38.88-8.32L38.88-8.32L38.88-8.32Q38.27-7.81 38.27-8.58L38.27-8.58L38.27-8.58Q38.27-8.96 39.49-9.95L39.49-9.95L39.49-9.95Q40.70-10.94 42.82-13.15L42.82-13.15L42.82-13.15Q44.93-15.36 46.50-16.54L46.50-16.54L46.50-16.54Q48.06-17.73 50.11-17.73L50.11-17.73L50.11-17.73Q52.42-17.73 53.25-16L53.25-16L53.25-16Q53.57-15.36 53.57-14.34L53.57-14.34L53.57-14.34Q53.57-13.31 53.06-12.06L53.06-12.06L53.06-12.06Q52.54-10.82 51.90-9.86ZM85.44-2.94L85.44-2.94L85.44-2.94Q84.22 0.38 84.22 2.50L84.22 2.50L84.22 2.50Q84.22 4.61 85.12 5.70L85.12 5.70L85.12 5.70Q85.31 5.95 85.18 6.05L85.18 6.05L85.18 6.05Q85.06 6.14 84.99 6.14L84.99 6.14L84.99 6.14Q84.93 6.14 84.80 6.08L84.80 6.08L84.80 6.08Q82.75 4.42 82.75 1.12L82.75 1.12L82.75 1.12Q82.75-2.18 84.10-6.46L84.10-6.46L84.10-6.46Q81.47-3.07 78.91-0.90L78.91-0.90L78.91-0.90Q75.84 1.66 72.64 1.66L72.64 1.66L72.64 1.66Q70.59 1.66 68.80 0.29L68.80 0.29L68.80 0.29Q67.01-1.09 67.01-4.22L67.01-4.22L67.01-4.22Q66.94-5.76 67.58-7.74L67.58-7.74L67.58-7.74Q66.30-6.59 65.95-6.34L65.95-6.34L65.95-6.34Q65.60-6.08 65.47-6.34L65.47-6.34L65.47-6.34Q65.34-6.59 65.34-6.82L65.34-6.82L65.34-6.82Q65.34-7.04 65.76-7.39L65.76-7.39L65.76-7.39Q66.18-7.74 70.21-12.10L70.21-12.10L70.21-12.10Q72.58-14.72 75.84-16.19L75.84-16.19L75.84-16.19Q79.10-17.66 82.05-17.66L82.05-17.66L82.05-17.66Q84.74-17.66 85.98-16.74L85.98-16.74L85.98-16.74Q87.23-15.81 87.23-14.40L87.23-14.40L87.23-14.40Q89.54-19.26 92.19-23.65L92.19-23.65L92.19-23.65Q94.85-28.03 96.32-29.70L96.32-29.70L96.32-29.70Q97.92-31.49 100.35-31.49L100.35-31.49L100.35-31.49Q102.78-31.49 104.32-30.14L104.32-30.14L104.32-30.14Q102.98-29.31 99.07-24.64L99.07-24.64L99.07-24.64Q95.17-19.97 91.46-14.62L91.46-14.62L91.46-14.62Q87.74-9.28 85.44-2.94ZM85.95-15.04L85.95-15.04L85.95-15.04Q85.95-16.32 84.35-16.32L84.35-16.32L84.35-16.32Q83.52-16.32 82.18-15.81L82.18-15.81L82.18-15.81Q79.17-14.66 76.22-11.33L76.22-11.33L76.22-11.33Q72.58-7.17 72.58-3.39L72.58-3.39L72.58-3.39Q72.58-1.15 74.05-0.70L74.05-0.70L74.05-0.70Q74.37-0.58 74.69-0.58L74.69-0.58L74.69-0.58Q77.31-0.58 82.50-5.82L82.50-5.82L82.50-5.82Q83.90-7.17 84.86-8.70L84.86-8.70L84.86-8.70Q85.38-10.18 86.21-12.10L86.21-12.10L86.21-12.10Q85.63-11.71 85.28-12L85.28-12L85.28-12Q84.93-12.29 85.44-13.28L85.44-13.28L85.44-13.28Q85.95-14.27 85.95-15.04ZM109.70-12.80L109.70-12.80L109.70-12.80Q106.88-9.54 105.12-6.82L105.12-6.82L105.12-6.82Q103.36-4.10 103.36-2.98L103.36-2.98L103.36-2.98Q103.36-1.86 104.67-1.86L104.67-1.86L104.67-1.86Q105.98-1.86 110.05-4.48L110.05-4.48L110.05-4.48Q114.11-7.10 117.57-10.37L117.57-10.37L117.57-10.37Q117.89-10.69 118.14-10.62L118.14-10.62L118.14-10.62Q118.40-10.56 118.40-10.30L118.40-10.30L118.40-10.30Q118.40-10.05 118.14-9.73L118.14-9.73L118.14-9.73Q109.89-2.18 105.54-0.26L105.54-0.26L105.54-0.26Q103.62 0.51 102.78 0.51L102.78 0.51L102.78 0.51Q99.71 0.51 98.59-0.51L98.59-0.51L98.59-0.51Q97.47-1.54 97.47-2.75L97.47-2.75L97.47-2.75Q97.47-5.18 98.43-6.46L98.43-6.46L98.43-6.46Q101.57-10.88 103.42-13.95L103.42-13.95L103.42-13.95Q104-14.85 103.20-15.20L103.20-15.20L103.20-15.20Q102.40-15.55 101.22-15.55L101.22-15.55L101.22-15.55Q100.03-15.55 99.97-15.62L99.97-15.62L99.97-15.62Q95.68-9.86 91.46-6.53L91.46-6.53L91.46-6.53Q90.94-6.08 90.88-6.53L90.88-6.53L90.88-6.53Q90.88-7.04 91.58-7.74L91.58-7.74L91.58-7.74Q96.06-11.58 98.94-15.87L98.94-15.87L98.94-15.87Q98.37-16.26 98.37-16.93L98.37-16.93L98.37-16.93Q98.37-17.60 98.46-18.56L98.46-18.56L98.46-18.56Q98.56-19.52 99.46-21.12L99.46-21.12L99.46-21.12Q100.99-23.81 102.66-23.81L102.66-23.81L102.66-23.81Q104.06-23.81 104.06-22.27L104.06-22.27L104.06-22.27Q104.06-20.16 102.08-17.66L102.08-17.66L102.08-17.66Q101.12-16.51 100.29-16L100.29-16L100.29-16Q102.66-16.77 107.20-16.77L107.20-16.77L107.20-16.77Q109.44-16.77 110.40-15.10L110.40-15.10L110.40-15.10Q110.53-14.85 110.53-14.34L110.53-14.34L110.53-14.34Q110.53-13.82 109.70-12.80ZM138.69-9.86L138.69-9.86L138.69-9.86Q137.98-9.02 137.25-8.06L137.25-8.06L137.25-8.06Q136.51-7.10 135.39-5.44L135.39-5.44L135.39-5.44Q134.27-3.78 134.27-2.62L134.27-2.62L134.27-2.62Q134.27-1.47 135.26-1.47L135.26-1.47L135.26-1.47Q136.26-1.47 138.50-2.69L138.50-2.69L138.50-2.69Q142.98-5.25 148.42-10.37L148.42-10.37L148.42-10.37Q149.06-11.01 149.25-10.56L149.25-10.56L149.25-10.56Q149.25-10.50 149.25-10.30L149.25-10.30L149.25-10.30Q149.25-10.11 148.99-9.86L148.99-9.86L148.99-9.86Q137.98 0.51 132.99 0.51L132.99 0.51L132.99 0.51Q131.52 0.51 130.53-0.48L130.53-0.48L130.53-0.48Q129.54-1.47 129.54-2.82L129.54-2.82L129.54-2.82Q129.54-4.16 130.69-6.91L130.69-6.91L130.69-6.91Q127.81-3.33 124.51-1.38L124.51-1.38L124.51-1.38Q121.22 0.58 119.36 0.58L119.36 0.58L119.36 0.58Q117.50 0.58 116.19-0.54L116.19-0.54L116.19-0.54Q114.88-1.66 114.88-3.33L114.88-3.33L114.88-3.33Q114.88-8.06 119.10-12.61L119.10-12.61L119.10-12.61Q122.30-16 127.04-17.41L127.04-17.41L127.04-17.41Q129.15-18.11 131.17-18.11L131.17-18.11L131.17-18.11Q133.18-18.11 135.07-16.99L135.07-16.99L135.07-16.99Q136.96-15.87 137.47-14.34L137.47-14.34L137.47-14.34Q139.39-14.34 140.22-12.93L140.22-12.93L140.22-12.93Q140.35-12.74 140.35-12.29L140.35-12.29L140.35-12.29Q140.35-11.84 139.87-11.26L139.87-11.26L139.87-11.26Q139.39-10.69 138.69-9.86ZM134.02-16.19L134.02-16.19L134.02-16.19Q132.67-16.19 130.82-15.36L130.82-15.36L130.82-15.36Q127.55-13.95 124.61-10.50L124.61-10.50L124.61-10.50Q119.94-4.99 119.94-2.43L119.94-2.43L119.94-2.43Q119.94-1.09 121.02-1.09L121.02-1.09L121.02-1.09Q121.92-1.09 124-2.24L124-2.24L124-2.24Q126.08-3.39 129.47-6.78L129.47-6.78L129.47-6.78Q129.66-6.98 130.94-8.19L130.94-8.19L130.94-8.19Q132.22-9.41 133.12-10.30L133.12-10.30L133.12-10.30Q136.13-13.44 136.13-14.82L136.13-14.82L136.13-14.82Q136.13-16.19 134.02-16.19ZM169.54-9.86L169.54-9.86L169.54-9.86Q168.83-9.02 168.10-8.06L168.10-8.06L168.10-8.06Q167.36-7.10 166.24-5.44L166.24-5.44L166.24-5.44Q165.12-3.78 165.12-2.62L165.12-2.62L165.12-2.62Q165.12-1.47 166.11-1.47L166.11-1.47L166.11-1.47Q167.10-1.47 169.34-2.69L169.34-2.69L169.34-2.69Q173.82-5.25 179.26-10.37L179.26-10.37L179.26-10.37Q179.90-11.01 180.10-10.56L180.10-10.56L180.10-10.56Q180.10-10.50 180.10-10.30L180.10-10.30L180.10-10.30Q180.10-10.11 179.84-9.86L179.84-9.86L179.84-9.86Q168.83 0.51 163.84 0.51L163.84 0.51L163.84 0.51Q162.37 0.51 161.38-0.48L161.38-0.48L161.38-0.48Q160.38-1.47 160.38-2.82L160.38-2.82L160.38-2.82Q160.38-4.16 161.54-6.91L161.54-6.91L161.54-6.91Q158.66-3.33 155.36-1.38L155.36-1.38L155.36-1.38Q152.06 0.58 150.21 0.58L150.21 0.58L150.21 0.58Q148.35 0.58 147.04-0.54L147.04-0.54L147.04-0.54Q145.73-1.66 145.73-3.33L145.73-3.33L145.73-3.33Q145.73-8.06 149.95-12.61L149.95-12.61L149.95-12.61Q153.15-16 157.89-17.41L157.89-17.41L157.89-17.41Q160-18.11 162.02-18.11L162.02-18.11L162.02-18.11Q164.03-18.11 165.92-16.99L165.92-16.99L165.92-16.99Q167.81-15.87 168.32-14.34L168.32-14.34L168.32-14.34Q170.24-14.34 171.07-12.93L171.07-12.93L171.07-12.93Q171.20-12.74 171.20-12.29L171.20-12.29L171.20-12.29Q171.20-11.84 170.72-11.26L170.72-11.26L170.72-11.26Q170.24-10.69 169.54-9.86ZM164.86-16.19L164.86-16.19L164.86-16.19Q163.52-16.19 161.66-15.36L161.66-15.36L161.66-15.36Q158.40-13.95 155.46-10.50L155.46-10.50L155.46-10.50Q150.78-4.99 150.78-2.43L150.78-2.43L150.78-2.43Q150.78-1.09 151.87-1.09L151.87-1.09L151.87-1.09Q152.77-1.09 154.85-2.24L154.85-2.24L154.85-2.24Q156.93-3.39 160.32-6.78L160.32-6.78L160.32-6.78Q160.51-6.98 161.79-8.19L161.79-8.19L161.79-8.19Q163.07-9.41 163.97-10.30L163.97-10.30L163.97-10.30Q166.98-13.44 166.98-14.82L166.98-14.82L166.98-14.82Q166.98-16.19 164.86-16.19ZM180.29-5.82L180.29-5.82L180.29-5.82Q178.56-1.60 178.56 1.28L178.56 1.28L178.56 1.28Q178.56 4.16 179.39 5.12L179.39 5.12L179.39 5.12Q179.58 5.38 179.46 5.47L179.46 5.47L179.46 5.47Q179.33 5.57 179.26 5.57L179.26 5.57L179.26 5.57Q179.20 5.57 179.07 5.50L179.07 5.50L179.07 5.50Q177.02 3.78 176.77 1.73L176.77 1.73L176.77 1.73Q176.64 1.02 176.64 0.19L176.64 0.19L176.64 0.19Q176.64-3.52 178.82-8.96L178.82-8.96L178.82-8.96Q175.62-5.76 175.49-6.53L175.49-6.53L175.49-6.53Q175.55-7.10 176.38-7.84L176.38-7.84L176.38-7.84Q177.22-8.58 180.16-12.16L180.16-12.16L180.16-12.16Q186.56-26.37 196.93-35.90L196.93-35.90L196.93-35.90Q202.30-40.90 206.66-40.90L206.66-40.90L206.66-40.90Q210.24-40.90 210.82-37.95L210.82-37.95L210.82-37.95Q210.94-37.50 210.94-36.99L210.94-36.99L210.94-36.99Q210.94-31.55 200.06-24.19L200.06-24.19L200.06-24.19Q196.29-21.63 193.15-20.29L193.15-20.29L193.15-20.29Q192.38-19.97 192.26-20.38L192.26-20.38L192.26-20.38Q192.13-20.80 192.90-21.12L192.90-21.12L192.90-21.12Q195.84-22.46 199.62-25.15L199.62-25.15L199.62-25.15Q203.39-27.84 206.40-31.01L206.40-31.01L206.40-31.01Q209.41-34.18 209.41-35.90L209.41-35.90L209.41-35.90Q209.41-36.99 208.19-36.99L208.19-36.99L208.19-36.99Q206.98-36.99 204.67-35.58L204.67-35.58L204.67-35.58Q198.27-31.68 190.66-21.89L190.66-21.89L190.66-21.89Q185.92-15.81 182.85-10.75L182.85-10.75L182.85-10.75Q187.33-16.70 192.06-18.62L192.06-18.62L192.06-18.62Q193.86-19.26 195.07-19.26L195.07-19.26L195.07-19.26Q196.29-19.26 197.18-18.88L197.18-18.88L197.18-18.88Q198.91-18.11 198.91-16.32L198.91-16.32L198.91-16.32Q198.91-13.12 195.14-10.30L195.14-10.30L195.14-10.30Q192.96-8.77 190.18-8.10L190.18-8.10L190.18-8.10Q187.39-7.42 185.98-7.42L185.98-7.42L185.98-7.42Q184.58-7.42 183.62-7.81L183.62-7.81L183.62-7.81Q185.66-5.18 188.96-3.26L188.96-3.26L188.96-3.26Q192.26-1.34 194.30-1.34L194.30-1.34L194.30-1.34Q195.65-1.34 196.42-1.98L196.42-1.98L196.42-1.98Q197.18-2.62 197.18-3.04L197.18-3.04L197.18-3.04Q197.18-3.46 197.34-3.46L197.34-3.46L197.34-3.46Q197.50-3.46 197.50-3.33L197.50-3.33L197.50-3.33Q197.50-1.09 194.11-0.26L194.11-0.26L194.11-0.26Q192.70 0.06 190.56 0.06L190.56 0.06L190.56 0.06Q188.42 0.06 185.73-1.28L185.73-1.28L185.73-1.28Q181.63-3.20 180.29-5.82ZM194.43-14.40L194.43-14.40L194.43-14.40Q194.43-16.64 192.32-16.64L192.32-16.64L192.32-16.64Q189.89-16.64 186.91-13.95L186.91-13.95L186.91-13.95Q183.94-11.26 182.53-9.54L182.53-9.54L182.53-9.54Q182.66-9.22 183.04-8.58L183.04-8.58L183.04-8.58Q183.81-8.13 184.80-8.13L184.80-8.13L184.80-8.13Q185.79-8.13 188.03-8.74L188.03-8.74L188.03-8.74Q190.27-9.34 192.35-10.91L192.35-10.91L192.35-10.91Q194.43-12.48 194.43-14.40ZM194.50-3.52L194.50-3.52L194.50-3.52Q194.43-3.58 194.43-3.71L194.43-3.71L194.43-3.71Q194.43-3.84 194.66-3.84L194.66-3.84L194.66-3.84Q194.88-3.84 194.94-3.58L194.94-3.58L194.94-3.58Q196.10-1.02 198.72-1.02L198.72-1.02L198.72-1.02Q201.98-1.02 204.42-4.22L204.42-4.22L204.42-4.22Q206.21-6.59 207.58-9.18L207.58-9.18L207.58-9.18Q208.96-11.78 209.89-13.31L209.89-13.31L209.89-13.31Q210.82-14.85 212.77-16.77L212.77-16.77L212.77-16.77Q214.72-18.69 216.32-19.14L216.32-19.14L216.32-19.14Q215.94-19.33 215.04-19.33L215.04-19.33L215.04-19.33Q214.14-19.33 211.68-18.02L211.68-18.02L211.68-18.02Q209.22-16.70 206.78-14.69L206.78-14.69L206.78-14.69Q204.35-12.67 201.54-10.11L201.54-10.11L201.54-10.11Q198.72-7.55 198.14-7.10L198.14-7.10L198.14-7.10Q197.57-6.66 197.44-7.10L197.44-7.10L197.44-7.10Q197.31-7.55 197.76-7.94L197.76-7.94L197.76-7.94Q199.42-9.34 202.56-12.32L202.56-12.32L202.56-12.32Q205.70-15.30 207.33-16.67L207.33-16.67L207.33-16.67Q208.96-18.05 211.01-19.04L211.01-19.04L211.01-19.04Q213.06-20.03 214.08-20.03L214.08-20.03L214.08-20.03Q216.64-20.03 217.22-19.14L217.22-19.14L217.22-19.14Q215.55-18.43 214.50-15.42L214.50-15.42L214.50-15.42Q213.44-12.42 212.13-8.45L212.13-8.45L212.13-8.45Q210.82-4.48 208.83-2.24L208.83-2.24L208.83-2.24Q210.50-2.88 213.98-5.22L213.98-5.22L213.98-5.22Q217.47-7.55 220.16-10.30L220.16-10.30L220.16-10.30Q220.74-10.82 220.99-10.43L220.99-10.43L220.99-10.43Q220.99-10.30 220.99-10.14L220.99-10.14L220.99-10.14Q220.99-9.98 219.78-8.77L219.78-8.77L219.78-8.77Q218.56-7.55 216.80-6.05L216.80-6.05L216.80-6.05Q215.04-4.54 212.42-2.69L212.42-2.69L212.42-2.69Q206.98 1.15 201.50 1.15L201.50 1.15L201.50 1.15Q196.03 1.15 194.50-3.52ZM235.46-15.62L235.46-15.62L235.46-15.62Q235.46-16.45 234.24-16.45L234.24-16.45L234.24-16.45Q232.06-16.45 228.93-13.38L228.93-13.38L228.93-13.38Q228.16-12.61 226.14-10.18L226.14-10.18L226.14-10.18Q224.13-7.74 222.21-4.61L222.21-4.61L220.61-1.09L220.80-1.73L220.80-1.73Q220.67-1.47 220.54-0.96L220.54-0.96L220.54-0.96L220.54-0.96Q220.22-0.19 218.69 0.32L218.69 0.32L218.69 0.32Q218.37 0.45 218.11 0.45L218.11 0.45L218.11 0.45Q217.47 0.45 217.98-0.51L217.98-0.51L217.98-0.51Q218.24-1.15 219.78-5.09L219.78-5.09L219.78-5.09Q221.31-9.02 222.27-11.39L222.27-11.39L222.27-11.39Q219.78-8.64 217.60-6.91L217.60-6.91L217.60-6.91Q216.96-6.40 216.70-6.78L216.70-6.78L216.70-6.78Q216.64-6.85 216.64-7.04L216.64-7.04L216.64-7.04Q216.64-7.23 217.22-7.74L217.22-7.74L217.22-7.74Q221.12-11.14 223.36-14.02L223.36-14.02L223.36-14.02Q225.02-17.92 229.47-24.86L229.47-24.86L229.47-24.86Q233.92-31.81 238.59-36.35L238.59-36.35L238.59-36.35Q241.73-39.49 245.38-40.58L245.38-40.58L245.38-40.58Q247.04-41.09 248.48-41.09L248.48-41.09L248.48-41.09Q249.92-41.09 251.17-40.29L251.17-40.29L251.17-40.29Q252.42-39.49 252.42-37.31L252.42-37.31L252.42-37.31Q252.42-34.43 250.50-31.49L250.50-31.49L250.50-31.49Q248.58-28.54 243.71-24.93L243.71-24.93L243.71-24.93Q238.85-21.31 234.69-19.52L234.69-19.52L234.69-19.52Q233.92-19.20 233.79-19.62L233.79-19.62L233.79-19.62Q233.66-20.03 234.43-20.35L234.43-20.35L234.43-20.35Q238.14-22.02 242.78-25.60L242.78-25.60L242.78-25.60Q247.42-29.18 248.99-31.71L248.99-31.71L248.99-31.71Q250.56-34.24 250.56-35.81L250.56-35.81L250.56-35.81Q250.56-37.38 249.22-37.38L249.22-37.38L249.22-37.38Q247.68-37.38 244.35-34.82L244.35-34.82L244.35-34.82Q239.42-30.85 234.02-23.74L234.02-23.74L234.02-23.74Q228.61-16.64 224.70-9.41L224.70-9.41L224.70-9.41Q226.50-11.97 227.97-13.63L227.97-13.63L227.97-13.63Q231.55-17.66 234.94-17.66L234.94-17.66L234.94-17.66Q238.14-17.66 238.72-14.85L238.72-14.85L238.72-14.85Q238.78-14.46 238.78-13.76L238.78-13.76L238.78-13.76Q238.78-13.06 238.30-11.68L238.30-11.68L238.30-11.68Q237.82-10.30 235.62-6.62L235.62-6.62L235.62-6.62Q233.41-2.94 233.41-2.18L233.41-2.18L233.41-2.18Q233.41-1.41 233.92-1.41L233.92-1.41L233.92-1.41Q234.62-1.41 236.03-2.30L236.03-2.30L236.03-2.30Q239.62-4.54 245.38-9.86L245.38-9.86L245.38-9.86Q246.14-10.62 246.11-10.11L246.11-10.11L246.11-10.11Q246.08-9.60 245.70-9.15L245.70-9.15L245.70-9.15Q240.96-4.29 235.90-1.02L235.90-1.02L235.90-1.02Q233.54 0.51 231.62 0.51L231.62 0.51L231.62 0.51Q231.10 0.51 230.66 0.38L230.66 0.38L230.66 0.38Q228.16-0.13 228.16-2.40L228.16-2.40L228.16-2.40Q228.16-4.67 229.95-7.49L229.95-7.49L229.95-7.49Q230.27-7.94 232.32-10.50L232.32-10.50L232.32-10.50Q235.46-14.34 235.46-15.62Z" fill="#444"></path></g></g><style>text {
  font-size: 64px;
  font-family: Arial Black;
  dominant-baseline: central;
  text-anchor: middle;
}</style></svg>